<?xml version="1.0" encoding="UTF-8"?>
<svg width="24px" height="17px" viewBox="0 0 24 17" version="1.1" xmlns="http://www.w3.org/2000/svg" xmlns:xlink="http://www.w3.org/1999/xlink">
    <title>Atom/Icon/Resource/FamilyChildServices</title>
    <g id="Styles" stroke="#02C9C1" stroke-width="1" fill="none" fill-rule="evenodd">
        <g id="Icons" transform="translate(-118.000000, -227.000000)">
            <g id="Group" transform="translate(118.000000, 224.000000)">
                <g id="RS_Illos_031120-26" transform="translate(0.000000, 3.000000)">
                    <path stroke-width="0.5" stroke="#02C9C1" d="M15.7890909,10.4327194 C14.0517824,10.4300226 12.3863161,11.1258232 11.1672727,12.3636364 C12.0076796,13.2227225 12.5941421,14.2974842 12.8618182,15.4690909 L22.1272727,15.4690909 C21.4412565,12.5216244 18.815338,10.4350512 15.7890909,10.4327194 L15.7890909,10.4327194 Z" id="Path"></path>
                    <path stroke-width="0.5" stroke="#02C9C1" d="M6.51636364,11.8727273 C4.28222105,11.8755772 2.3133689,13.3407695 1.66909091,15.48 L11.3636364,15.48 C10.7132466,13.3450646 8.74814706,11.882665 6.51636364,11.8727273 Z" id="Path"></path>
                    <path stroke-width="0.5" stroke="#02C9C1" d="M18.9781818,4.72727273 C18.9781818,2.91979536 17.5129319,1.45454545 15.7054545,1.45454545 C13.8979772,1.45454545 12.4327273,2.91979536 12.4327273,4.72727273 C12.4327273,6.53475009 13.8979772,8 15.7054545,8 C17.5129319,8 18.9781818,6.53475009 18.9781818,4.72727273 Z" id="Path"></path>
                    <path stroke-width="0.5" stroke="#02C9C1" d="M8.86182092,6.99272727 C8.86328884,6.00959144 8.27199954,5.12251162 7.3639811,4.74560215 C6.45596266,4.36869268 5.41028613,4.57628418 4.71510334,5.27146697 C4.01992054,5.96664977 3.81232904,7.0123263 4.18923851,7.92034474 C4.56614798,8.82836318 5.4532278,9.41965248 6.43636364,9.41818456 C7.77590519,9.41818456 8.86182092,8.33226883 8.86182092,6.99272727 L8.86182092,6.99272727 Z" id="Path"></path>
                    <path stroke-width="0.5" stroke="#02C9C1" fill="#02C9C1" d="M17.4290909,9.14545455 C19.5476715,8.30902147 20.7685618,6.08076745 20.3332646,3.8450304 C19.8979673,1.60929336 17.9302693,0.00185638883 15.6526338,0.0213650436 C13.3749984,0.0408736984 11.4351234,1.68178024 11.0381868,3.92464563 C10.6412502,6.16751102 11.90013,8.37452504 14.0327273,9.17454545 C12.5036194,9.52107069 11.1116088,10.3132513 10.0327273,11.4509091 C9.38941663,11.036873 8.67779996,10.7401609 7.93090909,10.5745455 C9.64862031,9.86313076 10.6211838,8.03411853 10.2505352,6.21223425 C9.87988654,4.39034997 8.27000979,3.08671572 6.4108761,3.10298314 C4.55174241,3.11925056 2.96492401,4.4508559 2.62621268,6.27894707 C2.28750136,8.10703825 3.29192116,9.91875188 5.02181818,10.6 C2.08145258,11.2914769 0.00242785111,13.9139686 0,16.9345455 L23.7454545,16.9345455 C23.7457543,13.1715799 21.1109621,9.92245794 17.4290909,9.14545455 L17.4290909,9.14545455 Z M12.4072727,4.72727273 C12.4072727,2.91979536 13.8725226,1.45454545 15.68,1.45454545 C17.4874774,1.45454545 18.9527273,2.91979536 18.9527273,4.72727273 C18.9527273,6.53475009 17.4874774,8 15.68,8 C13.8725226,8 12.4072727,6.53475009 12.4072727,4.72727273 L12.4072727,4.72727273 Z M3.99999724,6.99272727 C3.99799842,5.65165401 5.08317399,4.56268901 6.42424608,4.56001079 C7.76531817,4.55734244 8.85482657,5.64197244 8.85817928,6.98304303 C8.86151654,8.32411361 7.77743238,9.41416513 6.43636364,9.41819273 C5.79149914,9.42011328 5.17233204,9.16554398 4.71531993,8.71057819 C4.25830781,8.25561239 4.00096248,7.63759394 3.99999724,6.99272727 Z M9.45454545,15.48 L1.66909091,15.48 C2.31258776,13.3407216 4.28239846,11.8762457 6.51636364,11.8762457 C8.75032881,11.8762457 10.7201395,13.3407216 11.3636364,15.48 L9.45454545,15.48 Z M12.8618182,15.48 C12.5960176,14.3044988 12.0094333,13.2257376 11.1672727,12.3636364 C12.8301409,10.6702062 15.2846766,10.0193535 17.5681428,10.6663609 C19.851609,11.3133682 21.5998943,13.1550666 22.1272727,15.4690909 L12.8618182,15.48 Z" id="Shape"></path>
                </g>
            </g>
        </g>
    </g>
</svg>