<?xml version="1.0" encoding="UTF-8"?>
<svg width="24px" height="24px" viewBox="0 0 24 24" version="1.1" xmlns="http://www.w3.org/2000/svg" xmlns:xlink="http://www.w3.org/1999/xlink">
    <title>Atom/Icon/Resource/Financial</title>
    <g id="Styles" stroke="none" stroke-width="1" fill="none" fill-rule="evenodd">
        <g id="Icons" transform="translate(-165.000000, -224.000000)">
            <g id="RS_Illos_031120-27" transform="translate(165.000000, 224.000000)">
                <path stroke-width="0.5" stroke="#F8AF14" d="M12,1.77777778 C6.35442256,1.77777778 1.77777778,6.35442256 1.77777778,12 C1.77777778,17.6455774 6.35442256,22.2222222 12,22.2222222 C17.6455774,22.2222222 22.2222222,17.6455774 22.2222222,12 C22.2100001,6.3594929 17.6405071,1.78999994 12,1.77777778 Z M12.0888889,14.4177778 C13.1204261,14.4182244 14.035967,13.7570999 14.36,12.7777778 L16.0622222,13.3333333 C15.5928688,14.727051 14.4273662,15.7727987 12.9911111,16.0888889 L12.9911111,18.4844444 L11.2133333,18.4844444 L11.2133333,16.0977778 C9.29330355,15.6799192 7.92397488,13.9805289 7.92397488,12.0155556 C7.92397488,10.0505822 9.29330355,8.35119191 11.2133333,7.93333333 L11.2133333,5.37777778 L12.9911111,5.37777778 L12.9911111,7.93333333 C14.4273662,8.24942351 15.5928688,9.2951712 16.0622222,10.6888889 L14.3733333,11.2533333 C13.982892,10.0913785 12.7795717,9.41038775 11.5824286,9.6738865 C10.3852854,9.93738524 9.57909987,11.0606809 9.71261302,12.2791872 C9.84612617,13.4976935 10.8764248,14.4197635 12.1022222,14.4177778 L12.0888889,14.4177778 Z" id="Shape"></path>
                <path stroke-width="0.5" fill="#F8AF14" stroke="#F8AF14" d="M12,0 C5.372583,0 0,5.372583 0,12 C0,18.627417 5.372583,24 12,24 C18.627417,24 24,18.627417 24,12 C24,8.81740212 22.7357179,5.76515517 20.4852814,3.51471863 C18.2348448,1.26428208 15.1825979,0 12,0 Z M12,22.2488889 C6.35442256,22.2488889 1.77777778,17.6722441 1.77777778,12.0266667 C1.77777778,6.38108922 6.35442256,1.80444444 12,1.80444444 C17.6455774,1.80444444 22.2222222,6.38108922 22.2222222,12.0266667 C22.2100001,17.6671738 17.6405071,22.2366667 12,22.2488889 Z" id="Shape"></path>
                <path stroke-width="0.5" fill="#F8AF14" stroke="#F8AF14" d="M12.1022222,9.61333333 C13.1337594,9.61288676 14.0493003,10.2740112 14.3733333,11.2533333 L16.0622222,10.6888889 C15.5928688,9.2951712 14.4273662,8.24942351 12.9911111,7.93333333 L12.9911111,5.37777778 L11.2133333,5.37777778 L11.2133333,7.93333333 C9.29330355,8.35119191 7.92397488,10.0505822 7.92397488,12.0155556 C7.92397488,13.9805289 9.29330355,15.6799192 11.2133333,16.0977778 L11.2133333,18.4933333 L12.9911111,18.4933333 L12.9911111,16.0977778 C14.4294935,15.7800329 15.5954658,14.730489 16.0622222,13.3333333 L14.3733333,12.7688889 C13.982892,13.9308437 12.7795717,14.6118345 11.5824286,14.3483357 C10.3852854,14.084837 9.57909987,12.9615413 9.71261302,11.743035 C9.84612617,10.5245287 10.8764248,9.60245877 12.1022222,9.60444444 L12.1022222,9.61333333 Z" id="Path"></path>
            </g>
        </g>
    </g>
</svg>