<?xml version="1.0" encoding="UTF-8"?>
<svg width="24px" height="25px" viewBox="0 0 24 25" version="1.1" xmlns="http://www.w3.org/2000/svg" xmlns:xlink="http://www.w3.org/1999/xlink">
    <title>Atom/Icon/Resource/Food</title>
    <g id="Styles" stroke="none" stroke-width="1" fill="none" fill-rule="evenodd">
        <g id="Icons" transform="translate(-212.000000, -224.000000)">
            <g id="Group" transform="translate(212.000000, 224.000000)">
                <g id="RS_Illos_031120-28" transform="translate(0.005078, 0.000000)">
                    <path stroke-width="0.5" fill="#E72263" stroke="#E72263" d="M18.3506363,0 C14.8002344,0 11.9220649,2.87816947 11.9220649,6.42857143 L11.9220649,6.42857143 C15.4724669,6.42857143 18.3506363,3.55040196 18.3506363,0 Z" id="Path"></path>
                    <path stroke-width="0.5" fill="none" stroke="#E72263" d="M17.1377792,8.59285714 C15.8065631,8.58749809 14.528617,9.11534541 13.5892078,10.0585714 L13.1606363,10.4871429 L11.9477792,11.6957143 L10.7092078,10.4957143 L10.2806363,10.0671429 C8.30093812,8.26835878 5.25835662,8.33839584 3.36352367,10.2263676 C1.46869073,12.1143393 1.387617,15.1566468 3.17920777,17.1428571 L3.6077792,17.5714286 L8.1677792,22.1442857 L8.27063634,22.2428571 C8.55928531,22.5419532 8.95640746,22.7119277 9.37206491,22.7142876 C9.78954762,22.7149339 10.1902557,22.5500271 10.4863506,22.2557143 L10.7006363,22.0414286 L11.9134935,20.8371429 L13.1220649,22.0457143 L13.3320649,22.2557143 C13.6281598,22.5500271 14.0288679,22.7149339 14.4463506,22.7142876 C14.8440027,22.7142876 15.2263003,22.5607548 15.5134935,22.2857143 L15.5134935,22.2857143 L15.5649221,22.2342857 L15.5649221,22.2342857 L20.6649221,17.1428571 C22.1076423,15.7095035 22.5417199,13.5466914 21.7637983,11.6676538 C20.9858767,9.78861618 19.1500443,8.56554683 17.1163506,8.57140745 L17.1377792,8.59285714 Z" id="Path"></path>
                    <path stroke-width="0.5" fill="#E72263" stroke="#E72263" d="M17.1377792,6.87857143 C15.3515279,6.87590071 13.6379043,7.58541186 12.3763506,8.85 L11.9477792,9.27857143 L11.5192078,8.85 C8.89072685,6.21205134 4.62144214,6.20437622 1.98349349,8.83285714 C-0.654455174,11.4613381 -0.662130292,15.7306228 1.96635063,18.3685714 L2.39492206,18.7971429 L7.06635063,23.4642857 L7.06635063,23.4642857 C8.347721,24.7346191 10.4135517,24.7346191 11.6949221,23.4642857 L11.9092078,23.2542857 L12.1234935,23.4642857 C13.4068326,24.7379529 15.4772972,24.7379529 16.7606363,23.4642857 L16.7606363,23.4642857 L16.7606363,23.4642857 L21.8606363,18.39 C23.7940437,16.4709849 24.3805809,13.5760263 23.3465929,11.0557978 C22.3126049,8.53556937 19.86186,6.88673322 17.1377792,6.87857143 Z M20.6863506,17.1642857 L15.5777792,22.2171429 L15.5777792,22.2171429 L15.5263506,22.2685714 L15.5263506,22.2685714 C15.2391575,22.5436119 14.8568599,22.6971451 14.4592078,22.6971429 C14.0417251,22.697791 13.641017,22.5328842 13.3449221,22.2385714 L13.1349221,22.0285714 L11.9263506,20.82 L10.7092078,22.0242857 L10.4949221,22.2385714 C10.1995612,22.5412837 9.79499536,22.7126837 9.37206491,22.7143068 C8.95890487,22.7164427 8.56214205,22.5527974 8.27063634,22.26 L8.1677792,22.1614286 L3.59063634,17.5714286 L3.16206491,17.1428571 C1.2057935,15.1771179 1.21346865,11.9977001 3.17920785,10.0414286 C5.14494704,8.08515719 8.32436485,8.09283228 10.2806363,10.0585714 L10.7092078,10.4871429 L11.9177792,11.6957143 L13.1306363,10.4871429 L13.5592078,10.0585714 C15.5294908,8.18096265 18.6372972,8.21603518 20.5647051,10.1376306 C22.4921129,12.059226 22.5365716,15.1669123 20.6649221,17.1428571 L20.6863506,17.1642857 Z" id="Shape" ></path>
                </g>
            </g>
        </g>
    </g>
</svg>