<?xml version="1.0" encoding="UTF-8"?>
<svg width="24px" height="22px" viewBox="0 0 24 22" version="1.1" xmlns="http://www.w3.org/2000/svg" xmlns:xlink="http://www.w3.org/1999/xlink">
    <title>Atom/Icon/Resource/Housing</title>
    <g id="Styles" stroke="none" stroke-width="1" fill="none" fill-rule="evenodd">
        <g id="Icons" transform="translate(-306.000000, -225.000000)">
            <g id="Group" transform="translate(306.000000, 224.000000)">
                <g id="RS_Illos_031120-30" transform="translate(0.000000, 1.000000)">
                    <polygon id="Path" points="11.9446154 2.61230769 8.02153846 6.53538462 5.22923077 9.32769231 5.22923077 11.9446154 5.22923077 19.3061538 18.8953846 19.3061538 18.8953846 11.9446154 18.8953846 9.56307692"></polygon>
                    <path stroke-width="0.5" stroke="#4555D4" fill="#4555D4" d="M6.71538462,5.22923077 L6.71538462,2.12769231 L3.38307692,2.12769231 L3.38307692,8.56153846 L0,11.9446154 L3.38307692,11.9446154 L3.38307692,21.1753846 L20.7415385,21.1753846 L20.7415385,11.9446154 L23.8938462,11.9446154 L11.9446154,0 L6.71538462,5.22923077 Z M18.8953846,19.3061538 L5.22923077,19.3061538 L5.22923077,9.32769231 L7.99846154,6.53538462 L11.9215385,2.61230769 L18.8953846,9.56307692 L18.8953846,19.3061538 Z" id="Shape"></path>
                </g>
            </g>
        </g>
    </g>
</svg>