<?xml version="1.0" encoding="UTF-8"?>
<svg width="24px" height="24px" viewBox="0 0 24 24" version="1.1" xmlns="http://www.w3.org/2000/svg" xmlns:xlink="http://www.w3.org/1999/xlink">
    <title>Atom/Icon/OrganizationsWhite</title>
    <g id="Symbols" stroke="none" stroke-width="1" fill="none" fill-rule="evenodd">
        <g id="Atom/Icon/OrganizationsWhite" fill="#FFFFFF" fill-rule="nonzero">
            <g id="suitcase" transform="translate(2.000000, 2.000000)">
                <path d="M17,4 L14,4 L14,3 C14,1.34314575 12.6568542,0 11,0 L9,0 C7.34314575,0 6,1.34314575 6,3 L6,4 L3,4 C2.20435053,4 1.44128879,4.31607052 0.878679656,4.87867966 C0.316070521,5.44128879 -4.4408921e-16,6.20435053 -4.4408921e-16,7 L-4.4408921e-16,16 C-4.4408921e-16,17.6568542 1.34314575,19 3,19 L17,19 C18.6568542,19 20,17.6568542 20,16 L20,7 C20,5.34314575 18.6568542,4 17,4 Z M8,3 C8,2.44771525 8.44771525,2 9,2 L11,2 C11.5522847,2 12,2.44771525 12,3 L12,4 L8,4 L8,3 Z M18,16 C18,16.5522847 17.5522847,17 17,17 L3,17 C2.44771525,17 2,16.5522847 2,16 L2,10.95 L5,10.95 L5,12 C5,12.5522847 5.44771525,13 6,13 C6.55228475,13 7,12.5522847 7,12 L7,10.95 L13,10.95 L13,12 C13,12.5522847 13.4477153,13 14,13 C14.5522847,13 15,12.5522847 15,12 L15,10.95 L18,10.95 L18,16 Z M18,9 L2,9 L2,7 C2,6.44771525 2.44771525,6 3,6 L17,6 C17.5522847,6 18,6.44771525 18,7 L18,9 Z" id="Shape"></path>
            </g>
        </g>
    </g>
</svg>